<svg width="32" height="32" viewBox="0 0 32 32" fill="none" xmlns="http://www.w3.org/2000/svg">
<path d="M15.9997 16.0003C16.733 16.0003 17.361 15.739 17.8837 15.2163C18.4063 14.6937 18.6672 14.0661 18.6663 13.3337C18.6663 12.6003 18.405 11.9723 17.8823 11.4497C17.3597 10.927 16.7321 10.6661 15.9997 10.667C15.2663 10.667 14.6383 10.9283 14.1157 11.451C13.593 11.9737 13.3321 12.6012 13.333 13.3337C13.333 14.067 13.5943 14.695 14.117 15.2177C14.6397 15.7403 15.2672 16.0012 15.9997 16.0003ZM15.9997 25.8003C18.7108 23.3114 20.7219 21.0501 22.033 19.0163C23.3441 16.9826 23.9997 15.1772 23.9997 13.6003C23.9997 11.1781 23.2272 9.19499 21.6823 7.65099C20.1374 6.10699 18.2432 5.33455 15.9997 5.33366C13.7552 5.33366 11.8606 6.1061 10.3157 7.65099C8.77078 9.19588 7.99879 11.179 7.99967 13.6003C7.99967 15.1781 8.65523 16.9839 9.96634 19.0177C11.2775 21.0514 13.2886 23.3123 15.9997 25.8003ZM15.9997 28.8337C15.8219 28.8337 15.6441 28.8003 15.4663 28.7337C15.2886 28.667 15.133 28.5781 14.9997 28.467C11.7552 25.6003 9.33301 22.939 7.73301 20.483C6.13301 18.027 5.33301 15.7328 5.33301 13.6003C5.33301 10.267 6.40545 7.61144 8.55034 5.63366C10.6952 3.65588 13.1783 2.66699 15.9997 2.66699C18.8219 2.66699 21.3054 3.65588 23.4503 5.63366C25.5952 7.61144 26.6672 10.267 26.6663 13.6003C26.6663 15.7337 25.8663 18.0283 24.2663 20.4843C22.6663 22.9403 20.2441 25.6012 16.9997 28.467C16.8663 28.5781 16.7108 28.667 16.533 28.7337C16.3552 28.8003 16.1774 28.8337 15.9997 28.8337Z" fill="white"/>
</svg>
