<svg width="32" height="32" viewBox="0 0 32 32" fill="none" xmlns="http://www.w3.org/2000/svg">
<g id="material-symbols:location-on">
<path id="Vector" d="M15.9997 16.0003C16.733 16.0003 17.361 15.739 17.8837 15.2163C18.4063 14.6937 18.6672 14.0661 18.6663 13.3337C18.6663 12.6003 18.405 11.9723 17.8823 11.4497C17.3597 10.927 16.7321 10.6661 15.9997 10.667C15.2663 10.667 14.6383 10.9283 14.1157 11.451C13.593 11.9737 13.3321 12.6012 13.333 13.3337C13.333 14.067 13.5943 14.695 14.117 15.2177C14.6397 15.7403 15.2672 16.0012 15.9997 16.0003ZM15.9997 29.3337C12.4219 26.2892 9.7499 23.4617 7.98367 20.851C6.21745 18.2403 5.3339 15.8234 5.33301 13.6003C5.33301 10.267 6.40545 7.61144 8.55034 5.63366C10.6952 3.65588 13.1783 2.66699 15.9997 2.66699C18.8219 2.66699 21.3055 3.65588 23.4503 5.63366C25.5952 7.61144 26.6672 10.267 26.6663 13.6003C26.6663 15.8225 25.7828 18.2394 24.0157 20.851C22.2486 23.4625 19.5766 26.2901 15.9997 29.3337Z" fill="#FFEB39"/>
</g>
</svg>
