<svg width="32" height="32" viewBox="0 0 32 32" fill="none" xmlns="http://www.w3.org/2000/svg">
<path d="M29.947 7.99967C28.9204 8.46634 27.8137 8.77301 26.667 8.91967C27.8404 8.21301 28.747 7.09301 29.1737 5.74634C28.067 6.41301 26.8404 6.87967 25.547 7.14634C24.4937 5.99967 23.0137 5.33301 21.3337 5.33301C18.2004 5.33301 15.6404 7.89301 15.6404 11.053C15.6404 11.5063 15.6937 11.9463 15.787 12.3597C11.0404 12.1197 6.81371 9.83967 4.00038 6.38634C3.50704 7.22634 3.22704 8.21301 3.22704 9.25301C3.22704 11.2397 4.22704 12.9997 5.77371 13.9997C4.82704 13.9997 3.94704 13.733 3.17371 13.333V13.373C3.17371 16.1463 5.14704 18.4663 7.76038 18.9863C6.92135 19.216 6.0405 19.2479 5.18704 19.0797C5.54919 20.2163 6.25843 21.2109 7.21507 21.9236C8.17171 22.6363 9.32764 23.0313 10.5204 23.053C8.49855 24.6536 5.99237 25.5188 3.41371 25.5063C2.96038 25.5063 2.50704 25.4797 2.05371 25.4263C4.58704 27.053 7.60038 27.9997 10.827 27.9997C21.3337 27.9997 27.107 19.2797 27.107 11.7197C27.107 11.4663 27.107 11.2263 27.0937 10.973C28.2137 10.173 29.1737 9.15967 29.947 7.99967Z" fill="#1B1B1B"/>
</svg>
